<?xml version="1.0" standalone="no"?>
<!DOCTYPE svg PUBLIC "-//W3C//DTD SVG 20010904//EN"
 "http://www.w3.org/TR/2001/REC-SVG-20010904/DTD/svg10.dtd">
<svg version="1.0" xmlns="http://www.w3.org/2000/svg"
 width="447.000000pt" height="554.000000pt" viewBox="0 0 447.000000 554.000000"
 preserveAspectRatio="xMidYMid meet">

<g transform="translate(0.000000,554.000000) scale(0.100000,-0.100000)"
fill="#000000" stroke="none">
<path d="M1647 5309 c-106 -25 -210 -109 -255 -207 -24 -50 -27 -70 -27 -157
0 -89 3 -106 28 -156 49 -101 162 -188 263 -205 40 -6 41 -8 92 -110 29 -57
52 -108 52 -112 0 -4 -171 -171 -380 -372 l-381 -365 -282 -5 -282 -5 -57 -28
c-76 -38 -145 -107 -181 -186 -26 -54 -30 -75 -30 -145 0 -106 27 -177 94
-250 49 -54 151 -116 190 -116 39 0 53 -19 135 -182 77 -151 90 -171 120 -184
67 -28 99 -4 162 121 l41 80 1 -406 c0 -380 1 -407 18 -422 17 -16 99 -17 979
-17 925 0 962 -1 1004 -19 24 -11 60 -22 80 -26 34 -6 37 -11 120 -177 66
-133 90 -173 113 -185 34 -18 86 -11 109 15 8 9 51 90 96 179 l80 161 208 4
c200 4 210 5 266 30 70 33 154 115 187 183 22 43 25 64 25 155 0 87 -4 113
-22 153 -31 66 -115 152 -182 184 l-56 28 -297 3 -298 3 0 236 0 237 28 -26
c65 -63 119 -58 204 20 69 64 88 96 88 148 0 42 -4 47 -347 376 l-153 147 0
359 c0 265 -3 361 -12 370 -17 17 -519 17 -536 0 -7 -7 -12 -44 -12 -95 0 -46
-3 -83 -7 -83 -5 1 -82 72 -173 160 l-165 159 136 1 c190 0 258 25 352 129 62
69 87 139 87 241 0 149 -73 266 -208 332 l-67 33 -455 2 c-250 1 -472 -3 -493
-8z m532 -257 c37 -20 71 -73 71 -110 0 -12 -6 -38 -14 -57 -39 -93 -187 -101
-232 -13 -35 67 -15 139 49 178 40 25 82 25 126 2z m342 -840 c116 -112 140
-132 167 -132 45 0 52 22 52 154 l0 116 180 0 180 0 0 -346 0 -345 163 -157
c89 -86 202 -195 250 -242 l88 -84 -50 -50 -49 -49 -50 44 c-28 24 -315 286
-638 583 -324 296 -600 543 -614 548 -60 23 -76 11 -435 -318 l-344 -314 -111
0 c-62 0 -110 4 -108 9 2 4 148 148 326 319 l323 310 24 -24 c31 -31 82 -32
119 -3 16 13 58 83 102 172 l76 150 106 -104 c59 -57 168 -164 243 -237z m219
-589 c283 -258 521 -477 528 -485 9 -12 12 -80 10 -289 l-3 -274 -135 -5
c-128 -5 -139 -7 -202 -38 -75 -37 -142 -104 -179 -179 -21 -41 -24 -63 -24
-153 0 -95 3 -110 27 -157 l27 -53 -139 0 -140 0 0 288 c0 307 -7 378 -42 450
-63 131 -217 208 -362 181 -117 -21 -203 -88 -255 -198 l-26 -56 -3 -332 -3
-333 -385 0 -384 0 0 445 0 445 163 0 c238 0 311 23 410 129 71 76 90 127 91
241 1 85 -2 102 -28 158 -20 43 -47 80 -88 117 l-59 55 58 53 c32 30 172 158
312 286 l254 232 31 -29 c17 -16 263 -240 546 -499z m-1708 -270 c58 -29 76
-123 35 -184 -45 -67 -139 -75 -196 -18 -51 51 -53 121 -5 178 41 49 100 58
166 24z m1254 -579 c30 -18 60 -48 79 -78 l30 -49 3 -329 3 -328 -241 0 -240
0 0 298 c0 337 6 375 66 442 54 60 106 82 185 78 53 -3 76 -10 115 -34z m1270
-473 c31 -19 64 -74 64 -108 0 -10 -9 -36 -19 -59 -44 -98 -183 -98 -231 0
-24 51 -24 55 -3 107 29 73 120 102 189 60z"/>
<path d="M1970 1244 l0 -76 -31 26 c-44 37 -90 35 -135 -7 -63 -57 -57 -152
13 -207 35 -27 94 -22 129 11 l24 22 0 -21 c0 -12 5 -22 10 -22 6 0 10 65 10
175 0 110 -4 175 -10 175 -6 0 -10 -32 -10 -76z m-51 -58 c89 -47 52 -206 -48
-206 -29 0 -68 37 -81 75 -15 44 1 96 37 125 30 24 54 25 92 6z"/>
<path d="M1370 1295 c0 -8 7 -15 15 -15 8 0 15 7 15 15 0 8 -7 15 -15 15 -8 0
-15 -7 -15 -15z"/>
<path d="M1070 1135 c0 -103 4 -165 10 -165 6 0 10 32 10 75 l0 75 95 0 c123
0 125 18 3 22 l-93 3 0 65 0 65 103 3 c141 4 131 22 -13 22 l-115 0 0 -165z"/>
<path d="M1560 1213 c-8 -3 -23 -12 -32 -21 -16 -14 -18 -13 -18 1 0 10 -4 17
-10 17 -6 0 -10 -47 -10 -120 0 -73 4 -120 10 -120 6 0 10 33 10 80 0 43 5 90
11 104 15 33 62 52 97 40 39 -14 52 -49 52 -141 0 -53 4 -83 11 -83 7 0 10 32
7 101 -3 96 -4 102 -31 125 -27 23 -63 29 -97 17z"/>
<path d="M2532 1200 c-17 -16 -22 -31 -20 -53 3 -32 7 -35 93 -74 50 -22 58
-54 20 -79 -26 -17 -48 -14 -112 12 -7 3 -13 1 -13 -6 0 -14 61 -40 93 -40 37
0 77 36 77 70 0 36 -20 56 -70 71 -50 15 -74 41 -65 68 8 27 46 36 86 22 18
-6 35 -9 37 -6 12 11 -18 28 -60 32 -35 4 -47 0 -66 -17z"/>
<path d="M2944 1204 c-59 -29 -83 -118 -49 -183 15 -30 69 -61 105 -61 36 0
85 28 103 59 21 36 22 102 2 140 -15 31 -69 61 -107 61 -12 0 -37 -7 -54 -16z
m125 -38 c15 -15 25 -40 28 -70 5 -42 3 -48 -31 -82 -32 -32 -41 -36 -73 -31
-51 9 -84 45 -90 98 -11 98 97 153 166 85z"/>
<path d="M3270 1213 c-8 -3 -23 -12 -32 -21 -16 -14 -18 -13 -18 1 0 10 -4 17
-10 17 -6 0 -10 -47 -10 -120 0 -73 4 -120 10 -120 6 0 10 33 10 80 0 43 5 90
11 104 15 33 62 52 97 40 39 -14 52 -49 52 -141 0 -53 4 -83 11 -83 7 0 10 32
7 101 -3 96 -4 102 -31 125 -27 23 -63 29 -97 17z"/>
<path d="M1380 1090 c0 -73 4 -120 10 -120 6 0 10 47 10 120 0 73 -4 120 -10
120 -6 0 -10 -47 -10 -120z"/>
<path d="M2220 1114 c0 -93 1 -96 30 -126 27 -27 36 -30 71 -25 22 3 49 13 60
23 17 16 19 16 19 1 0 -10 5 -17 10 -17 6 0 10 47 10 120 0 73 -4 120 -10 120
-6 0 -10 -33 -10 -80 0 -43 -5 -90 -11 -104 -15 -33 -62 -52 -97 -40 -39 14
-52 49 -52 142 0 48 -4 82 -10 82 -6 0 -10 -39 -10 -96z"/>
<path d="M2270 770 c-11 -11 -20 -33 -20 -50 0 -31 30 -70 53 -70 7 0 21 -16
30 -35 9 -19 21 -35 27 -35 6 0 18 16 27 35 15 32 21 35 59 35 80 0 123 71 74
120 -17 17 -33 20 -125 20 -92 0 -108 -3 -125 -20z m236 -35 c10 -38 -11 -55
-67 -55 -43 0 -51 -3 -61 -25 -14 -30 -24 -32 -33 -5 -3 11 -18 25 -33 32 -27
13 -38 38 -28 64 4 11 28 14 110 14 104 0 106 0 112 -25z"/>
<path d="M2954 727 c-2 -7 -3 -102 -2 -212 l3 -200 43 -3 42 -3 0 215 0 216
-40 0 c-24 0 -43 -5 -46 -13z"/>
<path d="M3650 656 c0 -52 -1 -55 -27 -58 -22 -2 -28 -8 -28 -28 0 -20 6 -26
28 -28 l27 -3 0 -95 c0 -122 11 -136 103 -132 59 3 62 4 65 31 3 24 0 27 -25
27 -44 0 -53 16 -53 96 l0 73 38 3 c32 3 37 6 37 28 0 22 -5 25 -37 28 l-38 3
0 55 0 54 -45 0 -45 0 0 -54z"/>
<path d="M705 658 c-7 -18 -43 -100 -79 -182 -36 -82 -63 -152 -60 -157 3 -5
26 -9 50 -9 44 0 46 2 61 40 l16 41 90 -3 90 -3 12 -35 c11 -33 14 -35 63 -38
38 -2 52 1 52 10 0 7 -35 92 -78 188 l-77 175 -63 3 c-62 3 -63 3 -77 -30z
m109 -127 c14 -36 26 -68 26 -73 0 -9 -103 -11 -112 -2 -4 3 0 21 8 40 8 19
21 50 29 71 8 20 17 34 19 32 2 -2 16 -33 30 -68z"/>
<path d="M1834 675 c-12 -30 4 -45 46 -45 38 0 40 2 40 30 0 28 -2 30 -40 30
-27 0 -43 -5 -46 -15z"/>
<path d="M3100 660 c0 -28 2 -30 40 -30 38 0 40 2 40 30 0 28 -2 30 -40 30
-38 0 -40 -2 -40 -30z"/>
<path d="M2039 590 c-49 -26 -73 -77 -67 -147 6 -63 37 -104 97 -122 47 -14
125 -14 170 -1 33 9 91 55 91 72 0 14 -97 9 -109 -6 -19 -23 -65 -29 -104 -12
-30 12 -57 41 -57 60 0 3 64 6 141 6 l142 0 -6 46 c-5 48 -32 85 -79 110 -41
21 -174 18 -219 -6z m164 -41 c25 -14 37 -28 37 -46 0 -10 -24 -13 -85 -13
-94 0 -107 11 -59 49 30 23 74 27 107 10z"/>
<path d="M2444 591 c-37 -22 -50 -63 -34 -102 14 -33 22 -37 129 -54 95 -16
114 -27 88 -52 -23 -23 -89 -23 -114 0 -26 23 -113 24 -113 2 0 -28 50 -64 97
-71 65 -10 169 1 198 20 52 34 58 101 12 130 -12 8 -53 20 -92 26 -107 16
-115 19 -115 39 0 36 72 43 113 11 35 -28 107 -28 107 -1 0 48 -53 71 -163 71
-63 0 -89 -5 -113 -19z"/>
<path d="M3300 603 c-36 -14 -60 -47 -60 -83 0 -60 10 -65 198 -96 23 -4 32
-10 32 -25 0 -39 -100 -50 -130 -14 -14 17 -95 21 -105 5 -4 -6 7 -23 23 -39
34 -35 92 -46 189 -38 76 6 116 30 121 72 9 72 -15 91 -131 106 -93 12 -124
31 -93 55 28 20 79 17 110 -7 18 -14 37 -19 63 -17 46 4 51 18 19 54 -23 28
-28 29 -123 31 -54 1 -105 0 -113 -4z"/>
<path d="M1167 581 c-30 -15 -37 -16 -37 -4 0 11 -11 13 -42 11 l-43 -3 0
-135 0 -135 41 -3 42 -3 3 91 c4 82 6 94 28 111 25 20 76 25 101 9 11 -7 16
-35 20 -107 l5 -98 43 -3 42 -3 0 111 c0 61 -5 120 -10 131 -26 48 -126 64
-193 30z"/>
<path d="M1506 590 c-98 -30 -124 -160 -46 -235 27 -25 40 -30 99 -33 49 -3
77 0 99 12 l32 17 0 -31 c0 -46 -31 -70 -89 -70 -31 0 -55 6 -65 15 -19 19
-106 21 -106 2 0 -64 198 -99 292 -51 53 27 58 45 58 216 l0 158 -39 0 c-22 0
-41 -5 -43 -10 -2 -7 -16 -5 -40 5 -40 16 -106 18 -152 5z m166 -80 c20 -25
23 -71 8 -100 -14 -27 -71 -41 -115 -29 -51 14 -71 70 -44 120 23 44 118 49
151 9z"/>
<path d="M1834 577 c-2 -7 -3 -69 -2 -138 l3 -124 43 -3 42 -3 0 140 0 141
-40 0 c-24 0 -43 -5 -46 -13z"/>
<path d="M3100 450 l0 -140 40 0 40 0 0 140 0 140 -40 0 -40 0 0 -140z"/>
<path d="M3860 340 c0 -5 5 -10 11 -10 5 0 7 5 4 10 -3 6 -8 10 -11 10 -2 0
-4 -4 -4 -10z"/>
</g>
</svg>
