<?xml version="1.0" encoding="utf-8"?>
<!-- Generator: Adobe Illustrator 24.1.2, SVG Export Plug-In . SVG Version: 6.00 Build 0)  -->
<svg version="1.2" baseProfile="tiny" id="Layer_1" xmlns="http://www.w3.org/2000/svg" xmlns:xlink="http://www.w3.org/1999/xlink"
	 x="0px" y="0px" viewBox="0 0 1366 768" overflow="visible" xml:space="preserve">
<g>
	<path fill="#1B4669" d="M650.32,402.53h-2.64v-3.18h-5.04v3.18H640v-8.49h2.64v3.12h5.04v-3.12h2.64V402.53L650.32,402.53z
		 M654.47,402.53h-2.64v-8.49h2.64V402.53L654.47,402.53z M666.54,394.04l-1.7,2.19h-4.27c-0.72,0-1.32,0.19-1.8,0.59
		c-0.48,0.39-0.71,0.89-0.71,1.49c0,0.61,0.24,1.1,0.71,1.47c0.47,0.38,1.07,0.56,1.8,0.56h3.06v-0.79h-3.3l-1.73-2.1h7.67v5.08
		h-5.7c-1.48,0-2.7-0.41-3.67-1.23c-0.97-0.82-1.46-1.85-1.46-3.09c0-1.24,0.48-2.25,1.44-3.02c0.96-0.77,2.19-1.15,3.69-1.15
		H666.54L666.54,394.04z M677.81,402.53h-2.64v-3.18h-5.04v3.18h-2.64v-8.49h2.64v3.12h5.04v-3.12h2.64V402.53L677.81,402.53z
		 M694.63,394.04l-5.73,7.67c-0.47,0.64-0.95,0.95-1.44,0.95s-0.97-0.32-1.44-0.97l-5.58-7.66h3.28l3.79,5.25l3.82-5.25H694.63
		L694.63,394.04z M698.01,402.53h-2.64v-8.49h2.64V402.53L698.01,402.53z M708.21,400.34l-1.7,2.19h-7.53v-8.49h9.23l-1.7,2.19
		h-4.89v0.91h6.17l-1.7,2.19h-4.48v1.01H708.21L708.21,400.34z M723.89,394.04l-2.2,7.54c-0.09,0.3-0.26,0.55-0.53,0.75
		c-0.29,0.22-0.62,0.33-0.98,0.33c-0.56,0-1.04-0.33-1.45-0.99l-2.59-4.23l-2.6,4.23c-0.4,0.66-0.88,0.99-1.44,0.99
		c-0.36,0-0.68-0.11-0.96-0.32c-0.28-0.21-0.46-0.47-0.55-0.77l-2.2-7.54h2.89l1.12,4.49l2.38-3.83c0.31-0.5,0.75-0.75,1.3-0.75
		c0.29,0,0.57,0.07,0.83,0.21c0.26,0.14,0.47,0.32,0.61,0.54l2.38,3.83l1.11-4.49H723.89L723.89,394.04z"/>
	<path fill="#1B4669" d="M697.25,414.61h-1.55l-1.04-0.93h-1.47v0.93h-1.07v-1.89v-0.86v-0.96h0.7h0.37h1.8
		c0.54,0,0.97,0.11,1.31,0.33c0.38,0.25,0.56,0.61,0.56,1.07c0,0.26-0.08,0.5-0.23,0.71c-0.15,0.21-0.36,0.37-0.63,0.49
		L697.25,414.61L697.25,414.61z M693.19,412.72h1.9c0.18,0,0.33-0.03,0.45-0.09c0.15-0.08,0.22-0.19,0.22-0.34
		c0-0.29-0.22-0.44-0.67-0.44h-1.9V412.72L693.19,412.72z"/>
	<polygon fill="#1B4669" points="715.96,414.61 712.91,414.61 712.91,410.9 715.96,410.9 716.64,410.9 716.64,411.86 715.96,411.86 
		713.97,411.86 713.97,412.25 715.79,412.25 716.48,412.25 716.48,413.21 715.79,413.21 713.97,413.21 713.97,413.65 715.96,413.65 
		716.64,413.65 716.64,414.61 715.96,414.61 	"/>
	<polygon fill="#1B4669" points="690.23,414.61 687.17,414.61 687.17,410.9 690.23,410.9 690.91,410.9 690.91,411.86 690.23,411.86 
		688.24,411.86 688.24,412.25 690.06,412.25 690.75,412.25 690.75,413.21 690.06,413.21 688.24,413.21 688.24,413.65 690.23,413.65 
		690.91,413.65 690.91,414.61 690.23,414.61 	"/>
	<path fill="#1B4669" d="M710.96,414.61h-1.73c-0.6,0-1.09-0.18-1.49-0.54c-0.39-0.36-0.59-0.81-0.59-1.35
		c0-0.54,0.19-0.98,0.58-1.32c0.39-0.34,0.89-0.5,1.49-0.5h1.73h0.69v0.96h-0.69h-1.73c-0.29,0-0.53,0.08-0.72,0.26
		c-0.19,0.17-0.29,0.39-0.29,0.65c0,0.26,0.1,0.47,0.29,0.64c0.19,0.17,0.43,0.25,0.72,0.25h1.72h0.69v0.96H710.96L710.96,414.61z"
		/>
	<polygon fill="#1B4669" points="705.81,414.61 704.74,414.61 704.74,410.9 705.81,410.9 705.81,414.61 	"/>
	<path fill="#1B4669" d="M703.38,410.9l-2.32,3.35c-0.19,0.28-0.39,0.42-0.58,0.42c-0.2,0-0.39-0.14-0.58-0.42l-2.26-3.34h1.33
		l1.54,2.29l1.55-2.29H703.38L703.38,410.9z"/>
	<path fill="#1B4669" d="M685.13,411.86h-2.43c-0.13,0-0.2,0.05-0.2,0.15s0.07,0.15,0.2,0.15h1.75c0.42,0,0.77,0.11,1.05,0.33
		c0.29,0.23,0.43,0.53,0.43,0.9c0,0.37-0.15,0.66-0.44,0.89c-0.27,0.22-0.62,0.32-1.04,0.32h-2.46h-0.69v-0.96h0.69h2.46
		c0.11,0,0.21-0.02,0.3-0.06c0.11-0.05,0.17-0.12,0.17-0.21c0-0.09-0.06-0.16-0.17-0.21c-0.09-0.03-0.19-0.05-0.3-0.05h-1.75
		c-0.39,0-0.71-0.1-0.97-0.29c-0.28-0.21-0.42-0.48-0.42-0.82c0-0.34,0.14-0.62,0.42-0.82c0.26-0.19,0.59-0.29,0.97-0.29h2.43h0.69
		v0.96H685.13L685.13,411.86z"/>
	<path fill="#1B4669" d="M678.05,414.61h-1.55l-1.04-0.93h-1.47v0.93h-1.07v-1.89v-0.86v-0.96h0.7h0.37h1.8
		c0.54,0,0.97,0.11,1.31,0.33c0.38,0.25,0.56,0.61,0.56,1.07c0,0.26-0.08,0.5-0.23,0.71c-0.15,0.21-0.36,0.37-0.63,0.49
		L678.05,414.61L678.05,414.61z M673.99,412.72h1.9c0.18,0,0.33-0.03,0.45-0.09c0.15-0.08,0.22-0.19,0.22-0.34
		c0-0.29-0.22-0.44-0.67-0.44h-1.9V412.72L673.99,412.72z"/>
	<polygon fill="#1B4669" points="671.03,414.61 667.98,414.61 667.98,410.9 671.03,410.9 671.71,410.9 671.71,411.86 671.03,411.86 
		669.04,411.86 669.04,412.25 670.86,412.25 671.55,412.25 671.55,413.21 670.86,413.21 669.04,413.21 669.04,413.65 671.03,413.65 
		671.71,413.65 671.71,414.61 671.03,414.61 	"/>
	<polygon fill="#1B4669" points="666.56,410.9 666.56,411.86 665.11,411.86 665.11,414.61 664.04,414.61 664.04,411.86 
		662.62,411.86 663.31,410.9 666.56,410.9 	"/>
	<polygon fill="#1B4669" points="662.44,410.9 661.75,411.86 660.72,411.86 660.72,414.61 659.65,414.61 659.65,411.86 
		658.2,411.86 658.2,410.9 662.44,410.9 	"/>
	<path fill="#1B4669" d="M656.98,412.92c0,1.12-0.72,1.69-2.15,1.69h-0.22c-1.43,0-2.15-0.56-2.15-1.69v-2.02h1.07v2.02
		c0,0.34,0.14,0.55,0.41,0.65c0.15,0.05,0.44,0.08,0.9,0.08c0.36,0,0.61-0.04,0.77-0.12c0.21-0.11,0.31-0.31,0.31-0.61v-2.02h1.07
		V412.92L656.98,412.92z"/>
	<path fill="#1B4669" d="M651,411.86h-2.31c-0.29,0-0.54,0.09-0.73,0.26c-0.19,0.17-0.29,0.39-0.29,0.65c0,0.26,0.1,0.48,0.29,0.64
		c0.19,0.16,0.43,0.25,0.73,0.25h1.24v-0.34h-1.34v-0.91H651v2.21h-2.31c-0.6,0-1.09-0.18-1.49-0.54c-0.39-0.36-0.59-0.81-0.59-1.35
		c0-0.54,0.19-0.98,0.58-1.32c0.39-0.34,0.89-0.5,1.49-0.5H651V411.86L651,411.86z"/>
	<path fill-rule="evenodd" fill="#3A6E93" d="M723.23,403.85H640v5.3h83.23V403.85L723.23,403.85z M647.26,407.24
		c0,0.15-0.02,0.28-0.06,0.37c-0.05,0.11-0.15,0.21-0.28,0.3c-0.1,0.06-0.21,0.11-0.34,0.14c-0.1,0.02-0.22,0.03-0.36,0.03
		c-0.04,0-0.08,0-0.12,0c-0.04,0-0.08,0-0.12,0c-0.02,0-0.03,0-0.04,0h-1.36c-0.22,0-0.39-0.02-0.51-0.05
		c-0.15-0.04-0.3-0.12-0.46-0.23c-0.1-0.08-0.17-0.21-0.22-0.41c-0.04-0.16-0.06-0.36-0.06-0.59v-0.71c0-0.27,0.03-0.49,0.09-0.66
		c0.05-0.14,0.13-0.25,0.23-0.33c0.09-0.07,0.21-0.12,0.38-0.16c0.17-0.04,0.37-0.05,0.59-0.05h1.46c0.1,0,0.21,0.01,0.33,0.02
		c0.2,0.02,0.33,0.06,0.41,0.11c0.14,0.09,0.24,0.21,0.3,0.35c0.05,0.12,0.07,0.27,0.07,0.46v0.2h-0.91c0-0.02,0-0.03,0-0.04
		c0-0.06-0.01-0.1-0.02-0.14c-0.01-0.04-0.03-0.07-0.06-0.1c-0.04-0.04-0.09-0.06-0.14-0.07c-0.05-0.01-0.12-0.02-0.21-0.02h-1.02
		c-0.03,0-0.06,0-0.08,0c-0.07,0-0.13,0-0.18,0.01c-0.05,0.01-0.1,0.03-0.14,0.05c-0.11,0.07-0.17,0.18-0.17,0.32v0.69
		c0,0.09,0.01,0.16,0.02,0.22c0.01,0.05,0.05,0.11,0.09,0.17c0.03,0.04,0.09,0.07,0.17,0.1c0.08,0.03,0.15,0.04,0.2,0.04h1.11
		c0.04,0,0.08,0,0.09,0c0.05,0,0.1,0,0.13-0.01c0.04-0.01,0.08-0.03,0.12-0.06c0.09-0.07,0.14-0.17,0.14-0.29
		c0-0.01,0-0.03-0.01-0.06h0.91V407.24L647.26,407.24z M654.43,406.68c0,0.24-0.02,0.43-0.05,0.59c-0.05,0.25-0.14,0.43-0.26,0.55
		c-0.11,0.11-0.24,0.18-0.38,0.22c-0.1,0.02-0.24,0.04-0.42,0.04h-0.18h-1.75c-0.2,0-0.35-0.02-0.47-0.05
		c-0.14-0.04-0.28-0.12-0.42-0.23c-0.09-0.07-0.15-0.17-0.2-0.32c-0.04-0.12-0.06-0.25-0.07-0.39c-0.01-0.14-0.02-0.3-0.02-0.49
		v-0.27c0-0.19,0.01-0.35,0.02-0.48c0.01-0.13,0.04-0.26,0.08-0.38c0.05-0.15,0.13-0.26,0.23-0.35c0.11-0.09,0.24-0.15,0.4-0.18
		c0.09-0.01,0.25-0.02,0.48-0.02h1.67c0.24,0,0.42,0.01,0.53,0.03c0.17,0.03,0.32,0.1,0.45,0.2c0.15,0.12,0.25,0.27,0.3,0.44
		c0.05,0.15,0.07,0.37,0.07,0.64V406.68L654.43,406.68z M653.4,406.86v-0.76c0-0.07-0.01-0.13-0.03-0.18
		c-0.02-0.05-0.05-0.1-0.1-0.14c-0.05-0.04-0.1-0.06-0.15-0.08c-0.06-0.01-0.13-0.02-0.21-0.02h-1.2c-0.03,0-0.06,0-0.08,0
		c-0.07,0-0.13,0-0.18,0.01c-0.05,0.01-0.1,0.02-0.14,0.05c-0.07,0.05-0.11,0.1-0.13,0.17c-0.02,0.07-0.03,0.16-0.03,0.27v0.58
		c0,0.13,0.01,0.21,0.02,0.26c0.01,0.04,0.04,0.09,0.08,0.13c0.03,0.04,0.09,0.07,0.17,0.09c0.08,0.02,0.16,0.04,0.22,0.04h1.28
		c0.15,0,0.26-0.03,0.35-0.1c0.05-0.04,0.08-0.08,0.1-0.14C653.39,407.01,653.4,406.94,653.4,406.86L653.4,406.86z M661.58,408.08
		h-1.6l-1.63-2.29v2.29h-0.97v-3.16h1.54l1.69,2.38v-2.38h0.97V408.08L661.58,408.08z M668.16,407.24c0,0.13-0.01,0.23-0.04,0.32
		c-0.03,0.09-0.08,0.17-0.15,0.26c-0.1,0.11-0.25,0.18-0.46,0.22c-0.13,0.02-0.28,0.04-0.47,0.04c-0.05,0-0.09,0-0.1,0h-1.37
		c-0.17,0-0.33-0.01-0.46-0.03c-0.13-0.02-0.24-0.06-0.32-0.11c-0.08-0.05-0.14-0.13-0.18-0.21c-0.04-0.09-0.06-0.18-0.06-0.26
		v-0.42h0.88v0.09c0,0.03,0,0.06,0,0.09c0,0.03,0.02,0.06,0.04,0.09c0.03,0.04,0.06,0.06,0.1,0.07c0.04,0.01,0.09,0.02,0.16,0.02
		h1.19c0.02,0,0.04,0,0.05,0c0.06,0,0.11,0,0.15-0.01c0.04-0.01,0.07-0.03,0.11-0.06c0.03-0.02,0.05-0.05,0.06-0.07
		c0.01-0.02,0.02-0.05,0.02-0.08v-0.08c0-0.05-0.01-0.09-0.03-0.13c-0.02-0.03-0.05-0.06-0.09-0.09c-0.02-0.01-0.05-0.02-0.1-0.03
		c-0.05-0.01-0.12-0.01-0.22-0.01l-1.35-0.02c-0.17,0-0.31-0.01-0.43-0.04c-0.14-0.03-0.25-0.08-0.32-0.15
		c-0.1-0.09-0.17-0.2-0.21-0.34c-0.02-0.08-0.04-0.18-0.04-0.28v-0.18c0-0.2,0.02-0.35,0.05-0.45c0.05-0.14,0.14-0.25,0.28-0.34
		c0.09-0.06,0.21-0.1,0.34-0.12c0.14-0.02,0.3-0.03,0.48-0.03h1.2c0.22,0,0.43,0.02,0.61,0.07c0.25,0.06,0.4,0.15,0.48,0.28
		c0.04,0.08,0.08,0.16,0.09,0.23c0.02,0.07,0.03,0.15,0.03,0.25v0.19h-0.87v-0.12c0-0.03-0.01-0.06-0.02-0.08
		c-0.01-0.02-0.03-0.04-0.06-0.07c-0.02-0.02-0.05-0.03-0.08-0.04c-0.03-0.01-0.06-0.01-0.1-0.01h-1.2c-0.06,0-0.11,0-0.13,0
		c-0.03,0-0.06,0.02-0.09,0.04c-0.07,0.06-0.11,0.12-0.11,0.2v0.06c0,0.07,0.03,0.13,0.08,0.17c0.02,0.02,0.05,0.03,0.08,0.04
		c0.03,0.01,0.07,0.01,0.11,0.01l1.52,0.04c0.14,0,0.26,0.01,0.38,0.03c0.12,0.02,0.21,0.05,0.28,0.09
		c0.11,0.07,0.19,0.18,0.24,0.33c0.04,0.12,0.06,0.26,0.06,0.41V407.24L668.16,407.24z M674.68,405.72h-1.3v2.36h-1.02v-2.36h-1.34
		v-0.8h3.66V405.72L674.68,405.72z M681.28,408.08h-0.94v-0.47c0-0.06-0.01-0.11-0.02-0.15c-0.02-0.06-0.05-0.11-0.09-0.14
		c-0.05-0.04-0.11-0.06-0.19-0.06h-1.6v0.83l-0.92,0v-3.16h2.69c0.17,0,0.3,0.01,0.39,0.02c0.15,0.02,0.27,0.07,0.35,0.13
		c0.11,0.09,0.19,0.18,0.25,0.29c0.05,0.1,0.08,0.23,0.08,0.37v0.46c0,0.11-0.02,0.2-0.05,0.28c-0.03,0.08-0.08,0.15-0.15,0.2
		c-0.06,0.04-0.13,0.08-0.22,0.11c-0.07,0.03-0.12,0.04-0.14,0.04c0.04,0,0.11,0.02,0.2,0.06c0.12,0.05,0.2,0.12,0.25,0.19
		c0.04,0.06,0.07,0.12,0.09,0.18c0.02,0.06,0.02,0.13,0.02,0.21V408.08L681.28,408.08z M680.35,406.18v-0.13
		c0-0.06,0-0.11-0.01-0.14c-0.01-0.03-0.03-0.06-0.08-0.1c-0.04-0.03-0.08-0.05-0.12-0.06c-0.04-0.01-0.09-0.01-0.15-0.01h-1.54
		v0.74h1.52c0.07,0,0.12-0.01,0.16-0.02c0.04-0.01,0.08-0.03,0.12-0.07C680.32,406.33,680.35,406.26,680.35,406.18L680.35,406.18z
		 M688.16,406.99c0,0.16-0.02,0.3-0.05,0.41c-0.03,0.11-0.1,0.23-0.19,0.34c-0.11,0.14-0.29,0.23-0.53,0.28
		c-0.15,0.03-0.33,0.05-0.54,0.05c-0.06,0-0.11,0-0.12,0h-1.21c-0.18,0-0.33-0.01-0.45-0.04c-0.21-0.04-0.37-0.12-0.49-0.23
		c-0.12-0.11-0.21-0.27-0.26-0.46c-0.04-0.15-0.07-0.29-0.07-0.43v-2h0.97v1.91c0,0.07,0,0.13,0.01,0.18
		c0.01,0.04,0.03,0.1,0.08,0.16c0.05,0.06,0.1,0.1,0.17,0.12c0.06,0.02,0.14,0.03,0.24,0.03h0.98c0.1,0,0.18-0.01,0.24-0.02
		c0.06-0.01,0.12-0.04,0.18-0.09c0.04-0.03,0.07-0.08,0.09-0.13c0.02-0.05,0.03-0.12,0.03-0.19v-1.97h0.94V406.99L688.16,406.99z
		 M695.02,407.24c0,0.15-0.02,0.28-0.06,0.37c-0.05,0.11-0.15,0.21-0.28,0.3c-0.1,0.06-0.21,0.11-0.34,0.14
		c-0.1,0.02-0.22,0.03-0.36,0.03c-0.04,0-0.08,0-0.12,0c-0.04,0-0.08,0-0.12,0c-0.02,0-0.03,0-0.04,0h-1.36
		c-0.22,0-0.39-0.02-0.51-0.05c-0.15-0.04-0.3-0.12-0.46-0.23c-0.1-0.08-0.17-0.21-0.22-0.41c-0.04-0.16-0.06-0.36-0.06-0.59v-0.71
		c0-0.27,0.03-0.49,0.09-0.66c0.05-0.14,0.13-0.25,0.23-0.33c0.09-0.07,0.21-0.12,0.38-0.16c0.17-0.04,0.37-0.05,0.59-0.05h1.46
		c0.1,0,0.21,0.01,0.33,0.02c0.2,0.02,0.33,0.06,0.41,0.11c0.14,0.09,0.24,0.21,0.3,0.35c0.05,0.12,0.07,0.27,0.07,0.46v0.2h-0.91
		c0-0.02,0-0.03,0-0.04c0-0.06-0.01-0.1-0.02-0.14c-0.01-0.04-0.03-0.07-0.06-0.1c-0.04-0.04-0.09-0.06-0.14-0.07
		c-0.05-0.01-0.12-0.02-0.21-0.02h-1.02c-0.03,0-0.06,0-0.08,0c-0.07,0-0.13,0-0.18,0.01c-0.05,0.01-0.1,0.03-0.14,0.05
		c-0.11,0.07-0.17,0.18-0.17,0.32v0.69c0,0.09,0.01,0.16,0.02,0.22c0.01,0.05,0.05,0.11,0.09,0.17c0.03,0.04,0.09,0.07,0.17,0.1
		c0.08,0.03,0.15,0.04,0.2,0.04h1.1c0.04,0,0.08,0,0.09,0c0.05,0,0.1,0,0.13-0.01c0.04-0.01,0.08-0.03,0.12-0.06
		c0.09-0.07,0.14-0.17,0.14-0.29c0-0.01,0-0.03-0.01-0.06h0.91V407.24L695.02,407.24z M701.54,405.72h-1.3v2.36h-1.02v-2.36h-1.34
		v-0.8h3.66V405.72L701.54,405.72z M705.48,408.08h-0.99v-3.16h0.99V408.08L705.48,408.08z M712.74,406.68
		c0,0.24-0.02,0.43-0.05,0.59c-0.05,0.25-0.14,0.43-0.26,0.55c-0.11,0.11-0.24,0.18-0.38,0.22c-0.1,0.02-0.24,0.04-0.42,0.04h-0.18
		h-1.75c-0.2,0-0.35-0.02-0.47-0.05c-0.14-0.04-0.28-0.12-0.42-0.23c-0.09-0.07-0.15-0.17-0.2-0.32c-0.04-0.12-0.06-0.25-0.07-0.39
		c-0.01-0.14-0.02-0.3-0.02-0.49v-0.27c0-0.19,0.01-0.35,0.02-0.48c0.01-0.13,0.04-0.26,0.08-0.38c0.05-0.15,0.13-0.26,0.23-0.35
		c0.11-0.09,0.24-0.15,0.4-0.18c0.09-0.01,0.25-0.02,0.48-0.02h1.67c0.24,0,0.42,0.01,0.53,0.03c0.17,0.03,0.32,0.1,0.45,0.2
		c0.15,0.12,0.25,0.27,0.3,0.44c0.05,0.15,0.07,0.37,0.07,0.64V406.68L712.74,406.68z M711.7,406.86v-0.76
		c0-0.07-0.01-0.13-0.03-0.18c-0.02-0.05-0.05-0.1-0.1-0.14c-0.04-0.04-0.1-0.06-0.15-0.08c-0.06-0.01-0.13-0.02-0.21-0.02h-1.2
		c-0.03,0-0.06,0-0.08,0c-0.07,0-0.13,0-0.18,0.01c-0.05,0.01-0.1,0.02-0.14,0.05c-0.07,0.05-0.11,0.1-0.13,0.17
		c-0.02,0.07-0.03,0.16-0.03,0.27v0.58c0,0.13,0.01,0.21,0.02,0.26c0.01,0.04,0.04,0.09,0.08,0.13c0.03,0.04,0.09,0.07,0.17,0.09
		c0.08,0.02,0.16,0.04,0.22,0.04h1.28c0.15,0,0.26-0.03,0.35-0.1c0.05-0.04,0.08-0.08,0.1-0.14
		C711.69,407.01,711.7,406.94,711.7,406.86L711.7,406.86z M719.88,408.08h-1.6l-1.63-2.29v2.29h-0.97v-3.16h1.54l1.69,2.38v-2.38
		h0.97V408.08L719.88,408.08z"/>
	<polygon fill-rule="evenodd" fill="#1B4669" points="640,412.51 645.52,412.51 645.52,413.06 640,413.06 640,412.51 	"/>
	<polygon fill-rule="evenodd" fill="#1B4669" points="717.7,412.51 723.23,412.51 723.23,413.06 717.7,413.06 717.7,412.51 	"/>
	<path fill-rule="evenodd" fill="#1B4669" d="M675.69,371.62v-0.39h-0.19c-0.53,0-1.26-0.5-1.26-1.44v-1.36
		c0-0.2-0.21-0.64-0.58-0.64h-0.31v-0.82h5.5v0.82v3.83h0h-2.77l0,0H675.69L675.69,371.62z M697.53,375.26V359.6l-6.11-4.6v5.39
		l3.2,2.41v15.71C695.74,377.47,696.72,376.38,697.53,375.26L697.53,375.26z M676.21,355.94l-9.45,7.12v20.26
		c0.52,0.4,1.09,0.76,1.7,1.07l0-5.3v-0.01c0-0.17,0.01-0.33,0.04-0.49l1.43,0.36l0.02-0.06l-1.38-0.6c0.04-0.14,0.1-0.28,0.17-0.41
		l1.34,0.75l0.04-0.05l-1.2-0.95l0.03-0.04c0.08-0.1,0.17-0.2,0.27-0.29l1.09,1.06c0.02-0.01,0.03-0.03,0.05-0.04l-0.89-1.2
		c0.24-0.16,0.54-0.29,0.89-0.38l5.74-1.55l0-3.16h2.77l0,3.47c0,0.17,0,0.32-0.02,0.46l-1.46-0.37l-0.02,0.06l1.43,0.62
		c-0.03,0.14-0.08,0.28-0.16,0.43l-1.4-0.78c-0.01,0.02-0.02,0.04-0.04,0.05l1.27,1.01c-0.09,0.13-0.19,0.24-0.31,0.33l-1.15-1.12
		c-0.02,0.01-0.03,0.03-0.05,0.04l0.93,1.26c-0.19,0.1-0.41,0.19-0.68,0.26l-5.98,1.61l0,6.04c0.46,0.12,0.94,0.21,1.43,0.29
		c4.11,0.67,9.12,0.01,14.06-2.13c0.2-0.09,0.41-0.18,0.61-0.27v-8.73l3.63,2.73V360.9l-2.43-1.83l-9.61,7.24h-4.33l7.7-5.8
		L676.21,355.94L676.21,355.94z"/>
	<path fill-rule="evenodd" fill="#3A6E93" d="M699.38,360.88c1.81,1.17,3.2,2.73,4.02,4.63c3.29,7.59-3.66,17.9-15.52,23.03
		c-11.85,5.13-24.13,3.15-27.41-4.44c-1.99-4.59-0.23-10.17,4.09-15c-2.78,3.91-3.73,8.16-2.18,11.74
		c2.99,6.91,14.18,8.73,24.99,4.05c10.8-4.68,17.14-14.08,14.14-20.99C701.02,362.75,700.29,361.74,699.38,360.88L699.38,360.88z"/>
</g>
</svg>
